<?xml version="1.0" encoding="utf-8"?>
<!-- Generator: Adobe Illustrator 19.1.0, SVG Export Plug-In . SVG Version: 6.00 Build 0)  -->
<svg version="1.1" xmlns="http://www.w3.org/2000/svg" xmlns:xlink="http://www.w3.org/1999/xlink" x="0px" y="0px"
	 width="28.027px" height="28.018px" viewBox="0 0 28.027 28.018" style="enable-background:new 0 0 28.027 28.018;"
	 xml:space="preserve">
<style type="text/css">
	.st0{enable-background:new    ;}
	.st1{fill:#F7AF1B;}
</style>
<g id="Фигура_99_1_" class="st0">
</g>
<g id="Фигура_100_1_" class="st0">
	<g id="Фигура_100">
		<g>
			<path class="st1" d="M24.725,17.582c-0.842,0-1.602,0.325-2.184,0.845l-3.283-2.151c0.201-0.524,0.323-1.088,0.323-1.683
				c0-0.819-0.228-1.578-0.595-2.249l4.091-2.925c0.486,0.283,1.044,0.457,1.647,0.457c1.819,0,3.293-1.474,3.293-3.292
				c0-1.818-1.474-3.292-3.293-3.292c-1.818,0-3.293,1.474-3.293,3.292c0,0.486,0.112,0.943,0.301,1.359l-4.046,2.892
				c-0.789-0.594-1.76-0.959-2.823-0.959c-0.408,0-0.796,0.068-1.174,0.165l-1.772-4.183c0.758-0.603,1.253-1.522,1.253-2.566
				C13.171,1.474,11.697,0,9.878,0C8.06,0,6.585,1.474,6.585,3.292c0,1.818,1.474,3.292,3.293,3.292
				c0.064,0,0.123-0.015,0.186-0.019l1.852,4.372c-0.625,0.504-1.125,1.152-1.427,1.91L6.535,11.88
				c0.025-0.164,0.051-0.329,0.051-0.501c0-1.818-1.474-3.292-3.293-3.292C1.474,8.087,0,9.561,0,11.379
				c0,1.818,1.474,3.292,3.293,3.292c0.913,0,1.739-0.372,2.335-0.973l4.54,1.11c0.041,0.88,0.309,1.701,0.767,2.39l-3.959,4.489
				c-0.39-0.163-0.817-0.254-1.266-0.254c-1.819,0-3.293,1.474-3.293,3.292c0,1.818,1.474,3.292,3.293,3.292
				c1.818,0,3.293-1.474,3.293-3.292c0-0.647-0.193-1.245-0.515-1.754l3.876-4.394c0.727,0.457,1.58,0.732,2.502,0.732
				c1.295,0,2.467-0.523,3.32-1.368l3.341,2.189c-0.056,0.24-0.092,0.487-0.092,0.744c0,1.818,1.474,3.292,3.293,3.292
				c1.819,0,3.293-1.474,3.293-3.292C28.017,19.056,26.543,17.582,24.725,17.582z M8.568,3.292c0-0.722,0.588-1.31,1.31-1.31
				c0.722,0,1.31,0.588,1.31,1.31c0,0.722-0.588,1.31-1.31,1.31C9.156,4.602,8.568,4.014,8.568,3.292z M3.293,12.689
				c-0.722,0-1.31-0.588-1.31-1.31s0.588-1.31,1.31-1.31c0.722,0,1.31,0.588,1.31,1.31S4.015,12.689,3.293,12.689z M24.725,5.274
				c0.722,0,1.31,0.588,1.31,1.31c0,0.722-0.588,1.31-1.31,1.31c-0.722,0-1.31-0.588-1.31-1.31
				C23.415,5.862,24.002,5.274,24.725,5.274z M5.709,26.035c-0.722,0-1.31-0.588-1.31-1.31s0.588-1.31,1.31-1.31
				c0.722,0,1.31,0.588,1.31,1.31S6.431,26.035,5.709,26.035z M14.864,17.327c-1.508,0-2.735-1.227-2.735-2.734
				c0-1.508,1.227-2.735,2.735-2.735c1.508,0,2.735,1.227,2.735,2.735C17.599,16.101,16.372,17.327,14.864,17.327z M24.725,22.184
				c-0.722,0-1.31-0.588-1.31-1.31s0.588-1.31,1.31-1.31c0.722,0,1.31,0.588,1.31,1.31S25.447,22.184,24.725,22.184z"/>
		</g>
	</g>
</g>
</svg>
